<mxfile host="65bd71144e">
    <diagram id="KG6C6UBcvlqi8XZTSzyH" name="Page-1">
        <mxGraphModel dx="2865" dy="1335" grid="1" gridSize="10" guides="1" tooltips="1" connect="1" arrows="1" fold="1" page="1" pageScale="6" pageWidth="850" pageHeight="1100" math="0" shadow="0">
            <root>
                <mxCell id="0"/>
                <mxCell id="1" parent="0"/>
                <mxCell id="44" value="" style="rounded=1;whiteSpace=wrap;html=1;fontSize=24;fillColor=none;dashed=1;fontColor=#ffffff;strokeColor=#3700CC;strokeWidth=5;" vertex="1" parent="1">
                    <mxGeometry x="610" y="830" width="1840" height="550" as="geometry"/>
                </mxCell>
                <mxCell id="45" value="" style="rounded=1;whiteSpace=wrap;html=1;fontSize=24;fillColor=none;dashed=1;fontColor=#000000;strokeColor=#B09500;strokeWidth=5;" vertex="1" parent="1">
                    <mxGeometry x="80" y="330" width="2140" height="410" as="geometry"/>
                </mxCell>
                <mxCell id="13" style="edgeStyle=none;html=1;fontSize=24;fillColor=#e3c800;strokeColor=#B09500;strokeWidth=3;" edge="1" parent="1" source="12">
                    <mxGeometry relative="1" as="geometry">
                        <mxPoint x="750" y="630" as="targetPoint"/>
                    </mxGeometry>
                </mxCell>
                <mxCell id="12" value="&lt;font style=&quot;font-size: 24px;&quot;&gt;&lt;b&gt;&lt;u&gt;Prompt 1&lt;/u&gt;&lt;/b&gt;&lt;br&gt;Content Analysis with Bloom's taxonomy&lt;/font&gt;" style="rounded=1;whiteSpace=wrap;html=1;fillColor=#FCDE00;strokeColor=none;fontColor=#000000;" vertex="1" parent="1">
                    <mxGeometry x="300" y="560" width="290" height="140" as="geometry"/>
                </mxCell>
                <mxCell id="24" style="edgeStyle=none;html=1;fontSize=24;" edge="1" parent="1" source="15">
                    <mxGeometry relative="1" as="geometry">
                        <mxPoint x="895" y="970" as="targetPoint"/>
                    </mxGeometry>
                </mxCell>
                <mxCell id="15" value="&lt;font style=&quot;font-size: 24px;&quot;&gt;&lt;b&gt;&lt;u&gt;Prompt 2&lt;/u&gt;&lt;/b&gt;&lt;br&gt;Generate Initial Questions&lt;/font&gt;" style="rounded=1;whiteSpace=wrap;html=1;fillColor=#FCDE00;fontColor=#000000;strokeColor=none;" vertex="1" parent="1">
                    <mxGeometry x="750" y="560" width="290" height="140" as="geometry"/>
                </mxCell>
                <mxCell id="17" style="edgeStyle=none;html=1;fontSize=24;fillColor=#e3c800;strokeColor=#B09500;strokeWidth=3;" edge="1" parent="1">
                    <mxGeometry relative="1" as="geometry">
                        <mxPoint x="1200" y="629.47" as="targetPoint"/>
                        <mxPoint x="1040.0000000000005" y="629.47" as="sourcePoint"/>
                    </mxGeometry>
                </mxCell>
                <mxCell id="19" value="&lt;b style=&quot;color: rgb(0, 0, 0); font-size: 24px;&quot;&gt;&lt;u&gt;Prompt 3&lt;/u&gt;&lt;/b&gt;&lt;font color=&quot;#3d3d3d&quot; style=&quot;font-size: 24px;&quot;&gt;&lt;br&gt;Suggest ways to increase difficulty of each initial question&lt;/font&gt;" style="rounded=1;whiteSpace=wrap;html=1;strokeColor=none;fillColor=#FCDE00;" vertex="1" parent="1">
                    <mxGeometry x="1200" y="560" width="290" height="140" as="geometry"/>
                </mxCell>
                <mxCell id="22" style="edgeStyle=none;html=1;fontSize=24;fillColor=#e3c800;strokeColor=#B09500;strokeWidth=3;" edge="1" parent="1">
                    <mxGeometry relative="1" as="geometry">
                        <mxPoint x="1650" y="629.47" as="targetPoint"/>
                        <mxPoint x="1490.0000000000005" y="629.47" as="sourcePoint"/>
                    </mxGeometry>
                </mxCell>
                <mxCell id="41" style="edgeStyle=none;sketch=1;jumpSize=6;html=1;fontSize=24;exitX=1;exitY=0.429;exitDx=0;exitDy=0;exitPerimeter=0;entryX=0;entryY=0.5;entryDx=0;entryDy=0;strokeWidth=5;fillColor=#e3c800;strokeColor=#B09500;" edge="1" parent="1" source="23" target="12">
                    <mxGeometry relative="1" as="geometry">
                        <mxPoint x="180" y="650" as="targetPoint"/>
                        <Array as="points">
                            <mxPoint x="2150" y="620"/>
                            <mxPoint x="2150" y="400"/>
                            <mxPoint x="160" y="400"/>
                            <mxPoint x="160" y="630"/>
                        </Array>
                    </mxGeometry>
                </mxCell>
                <mxCell id="42" value="&lt;font style=&quot;font-size: 36px;&quot;&gt;Refine and Feedback&lt;/font&gt;" style="edgeLabel;html=1;align=center;verticalAlign=middle;resizable=0;points=[];fontSize=24;rounded=1;" vertex="1" connectable="0" parent="41">
                    <mxGeometry x="0.0406" y="1" relative="1" as="geometry">
                        <mxPoint x="1" as="offset"/>
                    </mxGeometry>
                </mxCell>
                <mxCell id="23" value="&lt;b style=&quot;color: rgb(0, 0, 0); font-size: 24px;&quot;&gt;&lt;u&gt;Prompt 4&lt;/u&gt;&lt;/b&gt;&lt;font color=&quot;#191919&quot;&gt;&lt;br&gt;&lt;span style=&quot;font-size: 24px; text-align: left;&quot;&gt;Apply Difficulty Enhancements&lt;/span&gt;&lt;/font&gt;" style="rounded=1;whiteSpace=wrap;html=1;fillColor=#FCDE00;" vertex="1" parent="1">
                    <mxGeometry x="1650" y="560" width="290" height="140" as="geometry"/>
                </mxCell>
                <mxCell id="26" value="&lt;b style=&quot;color: rgb(0, 0, 0); font-size: 24px;&quot;&gt;&lt;u&gt;Prompt 5&lt;/u&gt;&lt;/b&gt;&lt;span style=&quot;font-size: 24px; text-align: left;&quot;&gt;&lt;br&gt;Generate Candidate Distractors&lt;/span&gt;" style="rounded=1;whiteSpace=wrap;html=1;fillColor=#14A9FF;fontColor=#0A0A0A;strokeColor=#3700CC;" vertex="1" parent="1">
                    <mxGeometry x="750" y="970" width="290" height="140" as="geometry"/>
                </mxCell>
                <mxCell id="29" style="edgeStyle=none;html=1;fontSize=24;fillColor=#6a00ff;strokeColor=#3700CC;strokeWidth=3;" edge="1" parent="1">
                    <mxGeometry relative="1" as="geometry">
                        <mxPoint x="1200" y="1050" as="targetPoint"/>
                        <mxPoint x="1040.0000000000005" y="1050" as="sourcePoint"/>
                    </mxGeometry>
                </mxCell>
                <mxCell id="30" value="&lt;b style=&quot;color: rgb(0, 0, 0); font-size: 24px;&quot;&gt;&lt;u&gt;Prompt 6&lt;/u&gt;&lt;/b&gt;&lt;span style=&quot;font-size: 24px; text-align: left;&quot;&gt;&lt;br&gt;Evaluate Distractors&lt;/span&gt;" style="rounded=1;whiteSpace=wrap;html=1;fillColor=#14A9FF;fontColor=#0A0A0A;strokeColor=#3700CC;" vertex="1" parent="1">
                    <mxGeometry x="1200" y="970" width="290" height="140" as="geometry"/>
                </mxCell>
                <mxCell id="32" style="edgeStyle=none;html=1;fontSize=24;fillColor=#6a00ff;strokeColor=#3700CC;strokeWidth=3;" edge="1" parent="1">
                    <mxGeometry relative="1" as="geometry">
                        <mxPoint x="1650" y="1050" as="targetPoint"/>
                        <mxPoint x="1490.0000000000005" y="1050" as="sourcePoint"/>
                    </mxGeometry>
                </mxCell>
                <mxCell id="39" style="edgeStyle=none;html=1;fontSize=24;entryX=0.5;entryY=1;entryDx=0;entryDy=0;jumpSize=6;fillColor=#6a00ff;strokeColor=#3700CC;strokeWidth=5;" edge="1" parent="1" source="33" target="26">
                    <mxGeometry relative="1" as="geometry">
                        <mxPoint x="870" y="1280" as="targetPoint"/>
                        <Array as="points">
                            <mxPoint x="1795" y="1320"/>
                            <mxPoint x="1340" y="1320"/>
                            <mxPoint x="895" y="1320"/>
                        </Array>
                    </mxGeometry>
                </mxCell>
                <mxCell id="40" value="&lt;font style=&quot;font-size: 36px;&quot;&gt;Refine and Feedback&lt;/font&gt;" style="edgeLabel;html=1;align=center;verticalAlign=middle;resizable=0;points=[];fontSize=24;rounded=1;" vertex="1" connectable="0" parent="39">
                    <mxGeometry x="-0.1535" y="-2" relative="1" as="geometry">
                        <mxPoint x="-137" as="offset"/>
                    </mxGeometry>
                </mxCell>
                <mxCell id="33" value="&lt;font style=&quot;font-size: 24px;&quot;&gt;&lt;b style=&quot;color: rgb(0, 0, 0);&quot;&gt;&lt;u&gt;Prompt 7&lt;/u&gt;&lt;/b&gt;&lt;br&gt;Eliminate Irrelevant Distractors&amp;nbsp;&lt;/font&gt;" style="rounded=1;whiteSpace=wrap;html=1;fillColor=#14A9FF;fontColor=#0A0A0A;strokeColor=#3700CC;" vertex="1" parent="1">
                    <mxGeometry x="1650" y="970" width="290" height="140" as="geometry"/>
                </mxCell>
                <mxCell id="37" style="edgeStyle=none;html=1;fontSize=24;fillColor=#6a00ff;strokeColor=#3700CC;strokeWidth=3;" edge="1" parent="1">
                    <mxGeometry relative="1" as="geometry">
                        <mxPoint x="2100" y="1039.23" as="targetPoint"/>
                        <mxPoint x="1940.0000000000005" y="1039.23" as="sourcePoint"/>
                    </mxGeometry>
                </mxCell>
                <mxCell id="38" value="&lt;font style=&quot;font-size: 24px;&quot;&gt;&lt;b style=&quot;color: rgb(0, 0, 0);&quot;&gt;&lt;u&gt;Prompt 8&lt;/u&gt;&lt;/b&gt;&lt;br&gt;Select Final Distractors&lt;/font&gt;" style="rounded=1;whiteSpace=wrap;html=1;fillColor=#14A9FF;fontColor=#0A0A0A;strokeColor=#3700CC;" vertex="1" parent="1">
                    <mxGeometry x="2100" y="970" width="290" height="140" as="geometry"/>
                </mxCell>
                <mxCell id="48" style="edgeStyle=none;html=1;fontSize=24;fillColor=#6a00ff;strokeColor=#3700CC;strokeWidth=3;" edge="1" parent="1">
                    <mxGeometry relative="1" as="geometry">
                        <mxPoint x="894.23" y="970" as="targetPoint"/>
                        <mxPoint x="894.23" y="699.9999999999998" as="sourcePoint"/>
                    </mxGeometry>
                </mxCell>
                <mxCell id="50" style="edgeStyle=none;html=1;fontSize=24;fillColor=#6a00ff;strokeColor=#3700CC;strokeWidth=3;" edge="1" parent="1">
                    <mxGeometry relative="1" as="geometry">
                        <mxPoint x="2550" y="1039.23" as="targetPoint"/>
                        <mxPoint x="2390" y="1039.23" as="sourcePoint"/>
                    </mxGeometry>
                </mxCell>
                <mxCell id="51" value="&lt;font style=&quot;font-size: 24px;&quot;&gt;&lt;b style=&quot;color: rgb(0, 0, 0);&quot;&gt;&lt;u&gt;Prompt 9&lt;/u&gt;&lt;/b&gt;&lt;br&gt;Generate Final MCQAs with randomized options&lt;br&gt;&lt;/font&gt;" style="rounded=1;whiteSpace=wrap;html=1;fillColor=#14A9FF;fontColor=#0A0A0A;strokeColor=#3700CC;" vertex="1" parent="1">
                    <mxGeometry x="2550" y="970" width="290" height="140" as="geometry"/>
                </mxCell>
                <mxCell id="52" value="&lt;font color=&quot;#14a9ff&quot; style=&quot;font-size: 42px;&quot;&gt;Chain-Of-Thought + Refine and Feedback&lt;/font&gt;" style="text;strokeColor=none;fillColor=none;align=center;verticalAlign=middle;rounded=0;dashed=1;strokeWidth=5;fontSize=42;fontColor=#0A0A0A;whiteSpace=wrap;html=1;" vertex="1" parent="1">
                    <mxGeometry x="560" y="1380" width="830" height="120" as="geometry"/>
                </mxCell>
                <mxCell id="53" value="&lt;font color=&quot;#fcde00&quot; style=&quot;font-size: 42px;&quot;&gt;Refine and Feedback&lt;/font&gt;" style="text;strokeColor=none;fillColor=none;align=center;verticalAlign=middle;rounded=0;dashed=1;strokeWidth=5;fontSize=42;fontColor=#0A0A0A;whiteSpace=wrap;html=1;" vertex="1" parent="1">
                    <mxGeometry x="1470" y="220" width="830" height="120" as="geometry"/>
                </mxCell>
            </root>
        </mxGraphModel>
    </diagram>
</mxfile>